<?xml version="1.0" standalone="no"?>
<!DOCTYPE svg PUBLIC "-//W3C//DTD SVG 20010904//EN"
 "http://www.w3.org/TR/2001/REC-SVG-20010904/DTD/svg10.dtd">
<svg version="1.0" xmlns="http://www.w3.org/2000/svg"
 width="1280.000000pt" height="1280.000000pt" viewBox="0 0 1280.000000 1280.000000"
 preserveAspectRatio="xMidYMid meet">
<metadata>
Created by potrace 1.15, written by Peter Selinger 2001-2017
</metadata>
<g transform="translate(0.000000,1280.000000) scale(0.100000,-0.100000)"
fill="#3f51b5" stroke="none">
<path d="M5020 9885 l-1515 -1515 -1532 0 -1533 0 0 -495 0 -495 -190 0 -190
0 0 -805 0 -805 200 0 200 0 0 -570 0 -570 1497 0 1498 0 1542 -1542 1543
-1543 0 2120 0 2121 30 17 c48 29 163 147 210 216 154 230 210 534 146 804
-54 226 -155 393 -317 524 l-69 55 -2 1999 -3 1999 -1515 -1515z"/>
<path d="M9881 11116 c-150 -150 -272 -278 -270 -284 2 -6 47 -55 99 -109 355
-367 711 -859 958 -1323 49 -91 172 -339 172 -345 0 -3 16 -39 35 -80 90 -195
230 -587 290 -810 54 -201 96 -381 111 -470 4 -22 8 -49 11 -60 2 -11 10 -59
18 -107 13 -77 20 -122 39 -258 3 -19 10 -93 16 -165 7 -71 14 -152 16 -180 7
-74 7 -688 0 -775 -36 -437 -91 -792 -167 -1075 -6 -22 -15 -56 -19 -75 -155
-617 -464 -1300 -835 -1845 -245 -359 -445 -600 -773 -933 -29 -30 -52 -58
-50 -63 2 -5 128 -134 282 -288 l278 -279 143 147 c469 482 823 963 1147 1556
74 137 268 540 268 559 0 3 11 29 24 58 64 143 202 532 251 712 49 175 68 248
80 301 30 130 67 302 72 330 2 17 13 82 24 145 11 63 23 135 25 160 3 25 10
72 15 105 5 33 14 116 19 185 6 69 15 163 20 210 13 111 13 860 0 970 -6 47
-14 137 -20 200 -5 63 -14 149 -20 190 -6 41 -12 91 -15 110 -2 19 -13 87 -24
150 -11 63 -22 129 -24 145 -8 50 -75 346 -92 410 -9 33 -21 78 -26 100 -31
128 -173 554 -244 731 -159 392 -349 769 -551 1091 -67 107 -243 369 -269 401
-8 10 -44 58 -81 107 -219 291 -604 725 -644 725 -8 0 -138 -123 -289 -274z"/>
<path d="M8873 10239 l-293 -292 102 -106 c143 -149 292 -331 428 -520 193
-271 381 -608 500 -897 34 -82 65 -158 70 -169 28 -66 97 -273 139 -420 54
-192 106 -448 131 -655 5 -41 14 -115 21 -165 14 -118 14 -762 0 -880 -7 -49
-16 -124 -21 -165 -47 -392 -162 -818 -327 -1215 -231 -556 -554 -1045 -981
-1486 l-135 -140 291 -292 292 -292 102 106 c99 101 173 180 249 265 171 191
484 619 586 804 17 30 54 95 82 143 89 154 249 488 301 627 7 19 17 39 22 45
4 5 8 15 8 23 0 8 6 28 14 45 30 71 40 97 76 207 63 188 159 546 175 650 6 39
22 123 35 185 5 22 11 65 15 95 4 30 8 66 10 80 60 419 67 954 19 1355 -9 72
-18 148 -20 170 -7 55 -26 169 -43 260 -23 116 -44 212 -52 240 -5 17 -13 50
-18 75 -25 125 -120 428 -196 625 -251 650 -589 1208 -1046 1724 -42 47 -114
126 -160 174 l-84 88 -292 -292z"/>
<path d="M7901 9276 l-275 -275 76 -78 c266 -275 514 -641 647 -953 13 -30 34
-77 46 -105 12 -27 29 -68 36 -90 7 -22 16 -44 20 -50 6 -9 41 -121 83 -265
82 -281 122 -627 113 -967 -9 -346 -47 -585 -144 -918 -8 -27 -18 -59 -23 -70
-4 -11 -27 -72 -50 -135 -112 -302 -304 -641 -514 -905 -67 -85 -243 -279
-342 -378 -5 -4 115 -131 266 -282 l275 -275 103 103 c57 56 138 143 180 192
42 50 79 92 83 95 23 18 249 331 316 438 131 206 295 533 355 707 11 33 24 65
28 70 11 16 85 249 118 375 42 158 86 378 99 490 3 30 11 98 18 150 19 135 13
773 -8 935 -60 468 -186 889 -392 1310 -167 339 -315 568 -569 875 -76 91
-254 280 -265 280 -3 0 -130 -123 -280 -274z"/>
<path d="M6927 8311 c-130 -130 -237 -240 -237 -244 0 -5 38 -50 84 -100 556
-604 697 -1473 364 -2232 -98 -222 -223 -405 -409 -599 l-107 -112 243 -244
244 -244 22 19 c54 48 213 217 276 295 163 202 273 386 394 655 68 153 127
354 179 615 18 92 35 308 35 455 0 143 -18 385 -35 459 -5 22 -17 77 -26 121
-31 151 -91 341 -162 510 -80 190 -246 461 -394 645 -64 78 -219 241 -228 239
-3 -1 -112 -108 -243 -238z"/>
</g>
</svg>
